<svg width="210" height="50" viewBox="0 0 210 50" fill="none" xmlns="http://www.w3.org/2000/svg">
<path d="M21.9102 0C21.5747 0 21.2392 0.0872379 20.9386 0.260276L0.971605 11.7877C0.370523 12.1352 0 12.7775 0 13.473V36.5279C0 37.2225 0.370523 37.8638 0.971605 38.2113L20.9386 49.7397C21.2392 49.9128 21.5747 50 21.9102 50C22.2458 50 22.5813 49.9128 22.8818 49.7397L42.8479 38.2113C43.4499 37.8638 43.8205 37.2225 43.8205 36.5279V13.473C43.8205 12.778 43.4499 12.1352 42.8479 11.7877L22.8818 0.260276C22.5813 0.0872379 22.2458 0 21.9102 0Z" fill="#A7A9AC"/>
<path d="M11.4531 32.2422C12.7259 32.2422 13.7578 31.2104 13.7578 29.9376C13.7578 28.6648 12.7259 27.633 11.4531 27.633C10.1803 27.633 9.14851 28.6648 9.14851 29.9376C9.14851 31.2104 10.1803 32.2422 11.4531 32.2422Z" fill="#F5D22E"/>
<path d="M11.4527 32.3501C10.123 32.3501 9.04019 31.2677 9.04019 29.9376C9.04019 28.6074 10.123 27.5251 11.4527 27.5251C12.7833 27.5251 13.8656 28.6074 13.8656 29.9376C13.8656 31.2677 12.7833 32.3501 11.4527 32.3501ZM11.4527 27.7403C10.2424 27.7403 9.25637 28.7263 9.25637 29.9376C9.25637 31.1489 10.2424 32.1339 11.4527 32.1339C12.6639 32.1339 13.6499 31.1489 13.6499 29.9376C13.6499 28.7263 12.6639 27.7403 11.4527 27.7403Z" fill="#F5D22E"/>
<path d="M29.3509 25.7008C30.9419 25.7008 32.2317 24.411 32.2317 22.82C32.2317 21.229 30.9419 19.9392 29.3509 19.9392C27.7599 19.9392 26.4701 21.229 26.4701 22.82C26.4701 24.411 27.7599 25.7008 29.3509 25.7008Z" fill="#F5D22E"/>
<path d="M29.3499 25.8091C27.702 25.8091 26.3618 24.4675 26.3618 22.82C26.3618 21.1716 27.7025 19.8309 29.3499 19.8309C30.9984 19.8309 32.339 21.1716 32.339 22.82C32.339 24.4675 30.9984 25.8091 29.3499 25.8091ZM29.3499 20.0471C27.8218 20.0471 26.578 21.2909 26.578 22.8195C26.578 24.3481 27.8218 25.5925 29.3499 25.5925C30.8795 25.5925 32.1233 24.3481 32.1233 22.8195C32.1233 21.2909 30.8795 20.0471 29.3499 20.0471Z" fill="#F5D22E"/>
<path d="M24.5557 40.3036C25.5103 40.3036 26.2841 39.5297 26.2841 38.5751C26.2841 37.6205 25.5103 36.8466 24.5557 36.8466C23.6011 36.8466 22.8272 37.6205 22.8272 38.5751C22.8272 39.5297 23.6011 40.3036 24.5557 40.3036Z" fill="#F5D22E"/>
<path d="M24.5557 40.4119C23.5428 40.4119 22.7189 39.5889 22.7189 38.5751C22.7189 37.5633 23.5428 36.7403 24.5557 36.7403C25.568 36.7403 26.392 37.5633 26.392 38.5751C26.392 39.5889 25.568 40.4119 24.5557 40.4119ZM24.5557 36.9555C23.6617 36.9555 22.935 37.6821 22.935 38.5751C22.935 39.4691 23.6617 40.1967 24.5557 40.1967C25.4486 40.1967 26.1763 39.4691 26.1763 38.5751C26.1763 37.6821 25.4486 36.9555 24.5557 36.9555Z" fill="#F5D22E"/>
<path d="M18.3349 17.6255C20.2441 17.6255 21.7918 16.0778 21.7918 14.1685C21.7918 12.2593 20.2441 10.7116 18.3349 10.7116C16.4257 10.7116 14.878 12.2593 14.878 14.1685C14.878 16.0778 16.4257 17.6255 18.3349 17.6255Z" fill="#F5D22E"/>
<path d="M18.3354 17.7333C16.3692 17.7333 14.7701 16.1333 14.7701 14.1681C14.7701 12.2019 16.3692 10.6028 18.3354 10.6028C20.3011 10.6028 21.9006 12.2019 21.9006 14.1681C21.9006 16.1333 20.3011 17.7333 18.3354 17.7333ZM18.3354 10.819C16.488 10.819 14.9863 12.3217 14.9863 14.1686C14.9863 16.0149 16.4885 17.5172 18.3354 17.5172C20.1818 17.5172 21.684 16.0145 21.684 14.1686C21.6845 12.3212 20.1818 10.819 18.3354 10.819Z" fill="#F5D22E"/>
<path d="M24.8516 38.1248L11.7497 29.4875L11.1556 30.3888L24.2575 39.0261L24.8516 38.1248Z" fill="#F5D22E"/>
<path d="M29.5515 23.3225L29.1507 22.3197L11.3366 29.4388L11.7374 30.4416L29.5515 23.3225Z" fill="#F5D22E"/>
<path d="M29.6826 22.3953L18.6671 13.7429L18 14.5921L29.0155 23.2446L29.6826 22.3953Z" fill="#F5D22E"/>
<path d="M40.468 35.714L32.4229 40.3592L32.8481 41.1108L40.8999 36.4618C41.1678 36.3084 41.3323 36.0227 41.3323 35.7135V26.4687L40.468 26.4874V35.714Z" fill="#F5D22E"/>
<path d="M10.889 8.93619L2.9196 13.5368C2.65213 13.6921 2.48772 13.9768 2.48772 14.285V23.6809H3.35196V14.285L11.3007 9.69689L10.889 8.93619Z" fill="#F5D22E"/>
<path d="M11.4177 40.3707L3.35196 35.714V26.4692H2.48772V35.714C2.48772 36.0232 2.65261 36.3084 2.9196 36.4623L10.9853 41.1199L11.4177 40.3707Z" fill="#F5D22E"/>
<path d="M29.9913 41.7636L21.9102 46.4285L13.8498 41.7747L13.4174 42.5239L21.4784 47.1777C21.6116 47.2544 21.7616 47.2927 21.9102 47.2927C22.0588 47.2927 22.2084 47.2544 22.3421 47.1767L30.4164 42.5152L29.9913 41.7636Z" fill="#F5D22E"/>
<path d="M30.4021 7.4766L22.3421 2.82277C22.2084 2.74512 22.0588 2.70773 21.9102 2.70773C21.7616 2.70773 21.6116 2.74512 21.4784 2.82277L13.3221 7.53172L13.7338 8.29098L21.9102 3.57053L29.9707 8.22436L30.4021 7.4766Z" fill="#F5D22E"/>
<path d="M40.8999 13.5363L32.8347 8.88055L32.4033 9.62879L40.4685 14.2845V23.6804L41.3327 23.6617V14.2845C41.3323 13.9763 41.1674 13.6921 40.8999 13.5363Z" fill="#F5D22E"/>
<path d="M77.3736 49.7421H85.2735V30.7136L77.3736 38.1409V49.7421Z" fill="#A7A9AC"/>
<path d="M81.7226 19.8185L69.5543 30.9097L57.3457 19.8185H53.7958V49.7421H61.6947V34.4213L69.5543 41.5221L77.3736 34.381L85.2735 27.1762V19.8185H81.7226Z" fill="#A7A9AC"/>
<path d="M140.159 33.5048L140.283 33.3792L140.29 33.3725L153.803 19.8185H142.792L132.737 29.9127V19.8185H124.879V49.7421H132.737V41.0428L134.613 39.1293L140.16 33.5048H140.159Z" fill="#A7A9AC"/>
<path d="M142.016 35.3651L136.537 41.0456L145.266 49.7421H156.357L142.016 35.3651Z" fill="#A7A9AC"/>
<path d="M106.811 19.8185H103.26L89.2961 49.7421H97.1566L98.9517 45.8308L102.024 39.2088L105.096 32.6267L108.127 39.2088H104.672L101.702 45.8308H111.2L113.034 49.7421H120.894L106.811 19.8185Z" fill="#A7A9AC"/>
<path d="M177.695 19.8185H159.103V49.7421H177.695V43.3177H166.963V40.1196V37.3327V31.669V28.966V26.3211H177.695V19.8185Z" fill="#A7A9AC"/>
<path d="M175.71 31.6689H170.03V37.3327H175.71V31.6689Z" fill="#A7A9AC"/>
<path d="M203.384 38.8896C205.539 36.8946 206.935 34.0225 206.935 30.8301C206.935 24.7666 201.989 19.8185 195.924 19.8185H183.317V49.7421H191.176V44.1153H191.175V32.9612H191.176V26.4423H196.043C198.437 26.4423 200.352 28.3553 200.352 30.7496C200.352 33.1443 198.437 35.0185 196.043 35.0185H194.256V41.8001H196.043L200.671 49.7407H209.728L203.384 38.8896Z" fill="#A7A9AC"/>
<path d="M53.663 0.869981C53.663 0.428996 54.0815 0.208984 54.5009 0.208984H62.2627C62.7037 0.208984 62.9021 0.627439 62.9021 1.02433C62.9021 1.48784 62.6817 1.88472 62.2627 1.88472H55.5147V7.48619H58.9553C59.3738 7.48619 59.5948 7.86055 59.5948 8.27996C59.5948 8.63275 59.3963 9.02964 58.9553 9.02964H55.5147V15.689C55.5147 16.13 55.0517 16.3284 54.5886 16.3284C54.1251 16.3284 53.6626 16.13 53.6626 15.689L53.663 0.869981Z" fill="#A7A9AC"/>
<path d="M117.959 0.208984C118.4 0.208984 118.621 0.627441 118.621 1.04686C118.621 1.48784 118.4 1.92882 117.959 1.92882H114.409V15.6674C114.409 16.1084 113.945 16.3284 113.482 16.3284C113.019 16.3284 112.556 16.1084 112.556 15.6674V1.92882H108.983C108.565 1.92882 108.322 1.50941 108.322 1.04686C108.322 0.64997 108.542 0.208984 108.983 0.208984H117.959Z" fill="#A7A9AC"/>
<path d="M146.313 16.3284C145.894 16.3284 145.476 16.1084 145.476 15.6674V0.848412C145.476 0.407427 145.938 0.208984 146.402 0.208984C146.864 0.208984 147.328 0.407427 147.328 0.848412V14.6527H153.349C153.745 14.6527 153.944 15.0721 153.944 15.4905C153.944 15.91 153.745 16.3284 153.349 16.3284H146.313Z" fill="#A7A9AC"/>
<path d="M164.702 7.48571H168.142C168.539 7.48571 168.781 7.86007 168.781 8.27948C168.781 8.63227 168.583 9.02916 168.142 9.02916H164.702V14.6517H171.538C171.935 14.6517 172.178 15.0486 172.178 15.5121C172.178 15.909 171.979 16.3275 171.538 16.3275H163.687C163.269 16.3275 162.849 16.1074 162.849 15.6665V0.869981C162.849 0.428996 163.269 0.208984 163.687 0.208984H171.538C171.979 0.208984 172.178 0.627439 172.178 1.02433C172.178 1.48784 171.935 1.88472 171.538 1.88472H164.702V7.48571Z" fill="#A7A9AC"/>
<path d="M182.518 14.6527H189.486C189.904 14.6527 190.148 15.0937 190.148 15.4905C190.148 15.8874 189.904 16.3284 189.486 16.3284H180.775C180.356 16.3284 180.136 16.0859 180.136 15.7336C180.136 15.5572 180.202 15.3146 180.312 15.0937L187.434 1.88472H181.084C180.665 1.88472 180.445 1.48784 180.445 1.04686C180.445 0.627441 180.643 0.208984 181.084 0.208984H189.199C189.618 0.208984 189.839 0.428994 189.839 0.760212C189.839 0.980225 189.75 1.22277 189.618 1.46531L182.518 14.6527Z" fill="#A7A9AC"/>
<path d="M75.9548 0.208984C73.2869 0.208984 71.2138 1.50941 71.2138 5.0162V11.654C71.2138 14.8391 72.9269 16.2009 75.2406 16.4238V14.7265C73.8659 14.4859 73.0659 13.4936 73.0659 11.654V5.0162C73.0659 2.87694 74.1468 1.88472 75.9543 1.88472C77.7629 1.88472 78.8653 2.87694 78.8653 5.0162V11.654C78.8653 13.4879 78.0505 14.4729 76.6786 14.7183V16.4233C78.9909 16.1966 80.7175 14.8353 80.7175 11.6545V5.0162C80.7179 1.50941 78.6233 0.208984 75.9548 0.208984Z" fill="#A7A9AC"/>
<path d="M100.32 15.1157L97.0559 8.91893C98.9081 8.54362 100.341 7.30886 100.341 4.61885C100.341 1.26641 98.1143 0.208527 95.4459 0.208527H91.4104C91.0135 0.230097 90.7489 0.517695 90.7489 0.847954V15.667C90.7489 16.1079 91.2119 16.328 91.675 16.328C92.1385 16.328 92.6015 16.1079 92.6015 15.667V9.184V7.64008V1.88474H95.4463C97.2764 1.88474 98.4896 2.67852 98.4896 4.75115C98.4896 6.8463 97.2769 7.64008 95.4463 7.64008H95.1372V9.184L98.4671 15.6449C98.6655 16.0193 98.9306 16.373 99.305 16.373C99.8341 16.373 100.408 15.91 100.408 15.4249C100.408 15.3357 100.385 15.2265 100.32 15.1157Z" fill="#A7A9AC"/>
<path d="M136.436 15.3798L131.938 0.71613C131.805 0.296716 131.297 0.0757446 130.791 0.0757446C130.283 0.0757446 129.776 0.274666 129.644 0.71613L125.145 15.3798C125.123 15.4465 125.101 15.4901 125.101 15.5567C125.101 16.0193 125.741 16.3279 126.226 16.3279C126.556 16.3279 126.821 16.1961 126.909 15.9095L127.879 12.6237L128.298 11.1023L130.79 2.81033L133.237 11.1023H129.795L129.353 12.6237H133.678L134.648 15.9095C134.737 16.1961 135.001 16.3279 135.309 16.3279C135.839 16.3279 136.456 15.9752 136.456 15.5342C136.458 15.4906 136.436 15.4465 136.436 15.3798Z" fill="#A7A9AC"/>
<path d="M209.352 15.3798L204.853 0.71613C204.721 0.296716 204.214 0.0757446 203.706 0.0757446C203.2 0.0757446 202.692 0.274666 202.56 0.71613L198.061 15.3798C198.039 15.4465 198.017 15.4901 198.017 15.5567C198.017 16.0193 198.656 16.3279 199.142 16.3279C199.472 16.3279 199.737 16.1961 199.826 15.9095L200.795 12.6237L201.215 11.1023L203.706 2.81033L206.154 11.1023H202.711L202.269 12.6237H206.594L207.564 15.9095C207.653 16.1961 207.917 16.3279 208.226 16.3279C208.755 16.3279 209.373 15.9752 209.373 15.5342C209.374 15.4906 209.352 15.4465 209.352 15.3798Z" fill="#A7A9AC"/>
</svg>
